<svg xmlns="http://www.w3.org/2000/svg" viewBox="0 0 480 480" width="100%"><defs><style>.cls-1,.cls-2,.cls-4{fill:#fff;}.cls-1,.cls-3,.cls-4{stroke:#000;stroke-miterlimit:10;}.cls-1{stroke-width:9px;}.cls-3,.cls-5,.cls-6{fill:none;stroke-linecap:round;stroke-width:5px;}.cls-4{stroke-width:7px;}.cls-5,.cls-6{stroke:#fff;stroke-linejoin:round;}.cls-6{stroke-dasharray:8.91 8.91;}</style></defs><title>astonaut-avatar</title><g id="Layer_5" data-name="Layer 5"><g id="Outlin"><path d="M239.3,10.26A42.86,42.86,0,0,1,260.67,16l161.91,93.49a42.86,42.86,0,0,1,21.37,37v187a42.86,42.86,0,0,1-21.37,37L260.67,463.94a42.71,42.71,0,0,1-42.74,0L56,370.46a42.86,42.86,0,0,1-21.37-37v-187a42.86,42.86,0,0,1,21.37-37L217.93,16a42.86,42.86,0,0,1,21.37-5.72m0-7.35a50,50,0,0,0-25,6.71L52.34,103.11a50.06,50.06,0,0,0-25,43.37v187a50.08,50.08,0,0,0,25,43.37L214.26,470.3a50.08,50.08,0,0,0,50.08,0l161.92-93.48a50.1,50.1,0,0,0,25-43.37v-187a50.08,50.08,0,0,0-25-43.37L264.34,9.62a50.1,50.1,0,0,0-25-6.71Z"/></g><path id="Backpack" class="cls-1" d="M146.55,139.5H333a37.75,37.75,0,0,1,37.75,37.75V342.5a0,0,0,0,1,0,0h-262a0,0,0,0,1,0,0V177.25A37.75,37.75,0,0,1,146.55,139.5Z"/><g id="Torso"><path class="cls-2" d="M239.74,474.48a51.11,51.11,0,0,1-26.31-7.3L143.28,425,84.8,391.2V319.75a34.29,34.29,0,0,1,34.25-34.25H360.54a34.3,34.3,0,0,1,34.26,34.25V391L336,425l-69.82,42.16a51.13,51.13,0,0,1-26.39,7.35Z"/><path d="M360.54,289a30.79,30.79,0,0,1,30.76,30.75v69.19l-57.1,33-.06,0-.06,0-69.76,42.12a47.55,47.55,0,0,1-49.09.05L145.08,422l-.05,0-.05,0L88.3,389.18V319.76A30.79,30.79,0,0,1,119.05,289H360.54m0-7H119.05A37.75,37.75,0,0,0,81.3,319.76v73.46L141.47,428l70.15,42.18a54.55,54.55,0,0,0,56.32-.06L337.7,428l60.6-35V319.75A37.76,37.76,0,0,0,360.54,282Z"/><circle cx="132.3" cy="372" r="28"/><line class="cls-3" x1="130.8" y1="358.5" x2="215.8" y2="358.5"/><line class="cls-3" x1="109.8" y1="370.5" x2="195.8" y2="370.5"/><line class="cls-3" x1="150.8" y1="383.5" x2="236.8" y2="383.5"/></g><g id="Helmet"><circle class="cls-4" cx="239.8" cy="212.5" r="117"/><path d="M274.05,301.71c-17.32,6.21-51.41,6.21-68.72,0l-55.47-22.38c-10.43-3.74-19.76-13.06-19.76-21.9l-5.64-32.59,1.44-37.35c0-5.24,5.54-9.49,12.37-9.49H341.81c6.83,0,12.36,4.25,12.36,9.49l1.37,38.37-8.67,32.9c0,8.87-5.28,18.95-15.76,22.68Z"/><path class="cls-5" d="M132.73,212.81a30.59,30.59,0,0,1,.42-4.87"/><path class="cls-6" d="M135.85,199.5a18.92,18.92,0,0,1,9.4-9.1"/><path class="cls-5" d="M149.52,189.11a25.71,25.71,0,0,1,4.87-.41"/></g></g></svg>