<svg xmlns="http://www.w3.org/2000/svg" viewBox="0 0 480 480"><defs><style>.cls-1{fill:#f9f9f9}</style></defs><g id="Layer_8" data-name="Layer 8"><path d="M242.75 10.26A42.86 42.86 0 0 1 264.12 16L426 109.47a42.86 42.86 0 0 1 21.37 37v187a42.86 42.86 0 0 1-21.37 37l-161.88 93.47a42.71 42.71 0 0 1-42.74 0L59.46 370.46a42.85 42.85 0 0 1-21.36-37v-187a42.85 42.85 0 0 1 21.36-37L221.38 16a42.86 42.86 0 0 1 21.37-5.72m0-7.35a50.08 50.08 0 0 0-25 6.71L55.79 103.11a50.08 50.08 0 0 0-25 43.37v187a50.1 50.1 0 0 0 25 43.37l161.92 93.45a50.08 50.08 0 0 0 50.08 0l161.92-93.48a50.08 50.08 0 0 0 25-43.37v-187a50.06 50.06 0 0 0-25-43.37L267.79 9.62a50.08 50.08 0 0 0-25-6.71z" id="Outlin"/><rect class="cls-1" x="71.27" y="141.53" width="342.95" height="215.7" rx="8.5"/><path d="M405.73 145a5 5 0 0 1 5 5v198.7a5 5 0 0 1-5 5h-326a5 5 0 0 1-5-5V150a5 5 0 0 1 5-5h326m0-7h-326a12 12 0 0 0-12 12v198.7a12 12 0 0 0 12 12h326a12 12 0 0 0 12-12V150a12 12 0 0 0-12-12z"/><path class="cls-1" d="M78.22 357.23a2.16 2.16 0 0 1-1.28-3.9l153.19-112.47a21.38 21.38 0 0 1 25.26 0L408.57 353a2.16 2.16 0 0 1-1.28 3.91l-329.07.36z"/><path d="M242.77 240.22a17.72 17.72 0 0 1 10.55 3.45l149.88 109.7-320.88.35 149.88-110a17.81 17.81 0 0 1 10.57-3.46m0-7a24.87 24.87 0 0 0-14.71 4.74L74.87 350.51a5.66 5.66 0 0 0 3.35 10.22l329.07-.36a5.66 5.66 0 0 0 3.34-10.23L257.46 238a24.85 24.85 0 0 0-14.69-4.8z"/><path d="M242.73 262a21.2 21.2 0 0 1-12.61-4.13L76.94 145.79a2.16 2.16 0 0 1 1.27-3.9l329.08-.36a2.16 2.16 0 0 1 1.28 3.9L255.37 257.9a21.27 21.27 0 0 1-12.63 4.1z" fill="#fff"/><path d="M403.19 145L253.3 255a17.83 17.83 0 0 1-21.11 0L82.31 145.39l320.88-.39m4.1-7l-329.07.36a5.66 5.66 0 0 0-3.34 10.23l153.17 112.15a24.87 24.87 0 0 0 29.4 0l153.19-112.49a5.66 5.66 0 0 0-3.35-10.25z"/></g></svg>