<svg xmlns="http://www.w3.org/2000/svg" viewBox="0 0 90 45"><defs><style>.cls-1{fill:none;stroke:#000;stroke-miterlimit:10;stroke-width:5px;}.cls-2{fill:#fff;}</style></defs><title>fork icon</title><g id="fork_path" data-name="fork path"><path class="cls-1" d="M65.5,34.5,55,34c-9.83-1.09-22.5-7.5-25.32-18.54l-1.18-5"/></g><g id="commit_path" data-name="commit path"><line class="cls-1" x1="15" y1="10.5" x2="74" y2="10.5"/></g><g id="init_commit" data-name="init commit"><circle class="cls-2" cx="10" cy="11" r="7.5"/><path d="M10,5a6,6,0,1,1-6,6,6,6,0,0,1,6-6m0-3a9,9,0,1,0,9,9,9,9,0,0,0-9-9Z"/></g><g id="commit_bubble" data-name="commit bubble"><circle class="cls-2" cx="80" cy="11" r="7.5"/><path d="M80,5a6,6,0,1,1-6,6,6,6,0,0,1,6-6m0-3a9,9,0,1,0,9,9,9,9,0,0,0-9-9Z"/></g><g id="fork_bubble" data-name="fork bubble"><circle class="cls-2" cx="72" cy="34" r="7.5"/><path d="M72,28a6,6,0,1,1-6,6,6,6,0,0,1,6-6m0-3a9,9,0,1,0,9,9,9,9,0,0,0-9-9Z"/></g></svg>