<svg xmlns="http://www.w3.org/2000/svg" viewBox="0 0 480 480"><defs><style>.cls-1{fill:#fff;stroke-width:8px;}.cls-1,.cls-2,.cls-3,.cls-4{stroke:#000;}.cls-1,.cls-2{stroke-miterlimit:10;}.cls-2,.cls-3,.cls-4{fill:none;stroke-linecap:round;}.cls-2{stroke-width:8.84px;}.cls-3,.cls-4{stroke-linejoin:round;stroke-width:5.2px;}.cls-4{stroke-dasharray:16.65 16.65;}</style></defs><title>password-key</title><g id="Layer_4" data-name="Layer 4"><g id="Outlin"><path d="M236.3,10.26A42.86,42.86,0,0,1,257.67,16l161.91,93.49a42.86,42.86,0,0,1,21.37,37v187a42.86,42.86,0,0,1-21.37,37L257.67,463.94a42.71,42.71,0,0,1-42.74,0L53,370.46a42.86,42.86,0,0,1-21.37-37v-187a42.86,42.86,0,0,1,21.37-37L214.93,16a42.86,42.86,0,0,1,21.37-5.72m0-7.35a50,50,0,0,0-25,6.71L49.34,103.11a50.06,50.06,0,0,0-25,43.37v187a50.08,50.08,0,0,0,25,43.37L211.26,470.3a50.08,50.08,0,0,0,50.08,0l161.92-93.48a50.1,50.1,0,0,0,25-43.37v-187a50.08,50.08,0,0,0-25-43.37L261.34,9.62a50.1,50.1,0,0,0-25-6.71Z"/></g><g id="Key"><path class="cls-1" d="M400.43,120.31a12.14,12.14,0,0,0-9.22-5.7l-52-4.81a12.18,12.18,0,0,0-7.81,2l-136.59,91.1c-30.06-14.65-66.54-14.15-96.31,5.71h0a97.37,97.37,0,0,0,108.05,162c29.74-19.84,44.21-53.37,42.28-86.73L291,255.85a12.4,12.4,0,0,0,4.82-6.72l6.14-20.72,21.49,2.29a12.18,12.18,0,0,0,12.87-8.59l6.15-20.72,21.48,2.29A12.14,12.14,0,0,0,376.49,196v0l25-65A12.18,12.18,0,0,0,400.43,120.31ZM149.19,335.75a36.51,36.51,0,1,1,10.12-50.64A36.71,36.71,0,0,1,149.19,335.75Z"/><line class="cls-2" x1="214.42" y1="215.48" x2="333.42" y2="134.15"/><line class="cls-2" x1="216.92" y1="239.46" x2="319.17" y2="169.59"/><path class="cls-3" d="M68.44,278.13c.52-2.58,1.13-5.1,1.84-7.58"/><path class="cls-4" d="M76.27,255c14.21-28.79,42.27-47.55,72.69-48"/><path class="cls-3" d="M157.25,207.37a76.69,76.69,0,0,1,7.71,1.14"/></g></g></svg>