<svg id="Layer_1" data-name="Layer 1" xmlns="http://www.w3.org/2000/svg" viewBox="0 0 400 400"><title>Artboard 1</title><path d="M344.29,165c-73-1.32-123-67.83-104.37-139a9.17,9.17,0,0,1,3.57-5.2C285.68-4,339.16,2.45,370.76,39.16c28.24,32.81,30.38,80,8.34,117.37a8,8,0,0,1-4.72,3.4,73.34,73.34,0,0,1-14,4.15A99.29,99.29,0,0,1,344.29,165Z"/><path d="M221.12,170.65C195.23,139,189.61,103.87,204,64.5c-5.92,3.45-10.81,6.28-15.67,9.13Q107.9,120.76,27.54,168A9.63,9.63,0,0,0,23.92,173c-1.8,5.21-6.12,8.06-11.17,6.85A8.85,8.85,0,0,1,6.25,169c1.09-5,5.61-7.41,11.15-6.71a11.4,11.4,0,0,0,7-1.6q78.59-50.16,157-100.55l45.9-29.43c1.13-.72,2.3-1.37,4.08-2.43-10.89,43-2.92,81.05,28.27,112.18s68.93,39,112.16,28c-1.36,2.18-2.27,3.71-3.23,5.21Q304.27,274,239.93,374.37c-1.87,2.91-3.6,5.44-2.24,9.48s-2.11,8.76-6.38,9.83a8.89,8.89,0,0,1-10.9-5.61c-1.59-4.48.33-10.14,4.85-11.06,5.07-1,6.84-4.48,9-8.17q49.22-84,98.47-168c.75-1.28,1.35-2.65,2.42-4.76-37,13.63-70.7,9.23-102.17-14.19-1.79,1.65-3.69,3.35-5.53,5.11q-65.8,63.12-131.59,126.23c-2.15,2.06-3.77,3.84-3.57,7.41.31,5.39-4.52,9.52-9.69,9.35a9.56,9.56,0,0,1-9.08-9.54c0-5.41,4-9.09,9.66-9.49a9.39,9.39,0,0,0,5.7-2.26q65.6-68.08,131-136.38C220.32,171.83,220.67,171.24,221.12,170.65Z"/></svg>