<?xml version="1.0" encoding="utf-8"?>
<!-- Generator: Adobe Illustrator 23.0.1, SVG Export Plug-In . SVG Version: 6.00 Build 0)  -->
<svg version="1.1" xmlns="http://www.w3.org/2000/svg" xmlns:xlink="http://www.w3.org/1999/xlink" x="0px" y="0px"
	 viewBox="0 0 100 100" style="enable-background:new 0 0 100 100;" xml:space="preserve">
<style type="text/css">
	.st0{fill:none;stroke:#000000;stroke-width:6.0718;stroke-miterlimit:10;}
</style>
<g id="Outline">
	<path class="st0" d="M65.2,34.8l30,4.2c0.9,0.1,1.3,1.2,0.6,1.9L74.3,62.1c-0.3,0.3-0.4,0.6-0.3,1l5.3,29.8
		c0.2,0.9-0.8,1.6-1.6,1.2L50.8,80.2c-0.3-0.2-0.7-0.2-1,0L23.1,94.4c-0.8,0.4-1.8-0.3-1.6-1.2l4.9-29.8c0.1-0.4-0.1-0.7-0.3-1
		l-21.8-21c-0.7-0.6-0.3-1.8,0.6-1.9L34.8,35c0.4-0.1,0.7-0.3,0.8-0.6L48.8,7.2c0.4-0.8,1.6-0.8,2,0l13.6,27
		C64.5,34.6,64.8,34.8,65.2,34.8z"/>
</g>
<g id="Starshine">
	<path d="M67.3,78.4c-0.6,0-1.1-0.4-1.2-1l-0.3-1.5c-0.2-0.7,0.3-1.3,0.9-1.5c0.7-0.2,1.3,0.3,1.5,0.9l0.3,1.5
		c0.1,0.7-0.3,1.3-0.9,1.4c0,0,0,0,0,0L67.3,78.4z"/>
	<path d="M65.8,71.5c-0.6,0-1.1-0.4-1.2-1l-0.1-0.4c-0.1-0.7,0.3-1.3,1-1.5s1.3,0.3,1.5,1l0.1,0.4c0.1,0.7-0.3,1.3-0.9,1.4
		L65.8,71.5z"/>
	<path d="M64,62.9c-0.6,0-1.1-0.4-1.2-1l-0.7-3.3c-0.1-0.7,0.3-1.3,1-1.5c0.7-0.1,1.3,0.3,1.5,1l0.7,3.3c0.1,0.7-0.3,1.3-0.9,1.4
		c0,0,0,0,0,0L64,62.9z"/>
	<path d="M69.7,53.8c-0.7,0-1.2-0.5-1.2-1.2c0-0.3,0.1-0.7,0.4-0.9l6-5.4l-2.3-0.4c-0.7-0.1-1.1-0.7-1-1.4c0.1-0.7,0.7-1.1,1.4-1
		l4.7,0.8c0.5,0.1,0.8,0.4,1,0.9c0.1,0.4,0,0.9-0.4,1.2l-7.8,7.2C70.3,53.7,70,53.8,69.7,53.8z"/>
	<path d="M66.6,44.8h-0.2l-9.5-1.6c-0.7-0.1-1.1-0.7-1-1.4c0.1-0.7,0.7-1.1,1.4-1l9.5,1.6c0.7,0.1,1.2,0.6,1.1,1.3
		C67.8,44.4,67.2,44.9,66.6,44.8L66.6,44.8z"/>
	<path d="M55,38.5c-0.5,0-0.9-0.3-1.1-0.7l-1.3-2.9c-0.2-0.6,0.1-1.3,0.7-1.6c0.6-0.2,1.2,0,1.5,0.6l1.3,2.9c0.3,0.6,0,1.3-0.6,1.6
		C55.3,38.5,55.1,38.5,55,38.5z"/>
	<path d="M51.4,30.4c-0.5,0-0.9-0.3-1.1-0.7l-0.6-1.2c-0.3-0.6,0-1.3,0.6-1.6c0.6-0.3,1.3,0,1.6,0.6l0,0l0.5,1.2
		c0.3,0.6,0,1.3-0.6,1.6c0,0,0,0,0,0C51.7,30.4,51.5,30.5,51.4,30.4z"/>
</g>
</svg>
