<svg xmlns="http://www.w3.org/2000/svg" data-name="Layer 1" viewBox="0 0 100 100" x="0px" y="0px"><title>Artboard 22</title><path d="M21.55,78.32c-2.74,0-4.72-1.65-4.72-2.76a2.5,2.5,0,0,0-5,0c0,4.2,4.45,7.76,9.72,7.76a2.5,2.5,0,1,0,0-5Z"></path><path d="M98.51,71.53,89.06,28.47l0-.16a15.43,15.43,0,0,0-4.15-8l-.43-4a11.51,11.51,0,0,0-22.9.11l-.61,6.18a16,16,0,0,0-1.77,3.61,13.19,13.19,0,0,0-18.33,0,16.05,16.05,0,0,0-1.77-3.6l-.61-6.18a11.42,11.42,0,0,0-1.16-4A11.55,11.55,0,0,0,27.39,6h0A11.56,11.56,0,0,0,15.56,16.32l-.43,4a15.43,15.43,0,0,0-4.15,8l0,.16L1.49,71.53h0a16.67,16.67,0,0,0-.51,4C1,85.71,10.14,94,21.37,94s20.37-8.26,20.37-18.4c0-.26,0-.51,0-.76a2.49,2.49,0,0,0,0-.42v-4.3a14,14,0,0,0,16.51,0v4.32a2.49,2.49,0,0,0,0,.42c0,.26,0,.51,0,.76,0,10.15,9.14,18.4,20.37,18.4S99,85.71,99,75.56a16.67,16.67,0,0,0-.51-4ZM91.09,61a21.66,21.66,0,0,0-12.46-3.88,21.28,21.28,0,0,0-15.37,6.36V31.58a10.86,10.86,0,0,1,10-10.94,10.39,10.39,0,0,1,7.53,2.72l.12.11a10.51,10.51,0,0,1,3.19,6,2.49,2.49,0,0,0,.1.39ZM72.78,11a6.5,6.5,0,0,1,6.67,5.68,15.46,15.46,0,0,0-6.37-1.08,15.11,15.11,0,0,0-6.62,1.86l.06-.59A6.53,6.53,0,0,1,72.78,11Zm-52,4.59c0-.09.07-.18.1-.28s.07-.2.11-.3a6.51,6.51,0,0,1,12.49,1.86l.06.59a15.11,15.11,0,0,0-6.62-1.86,15.46,15.46,0,0,0-6.37,1.08A6.51,6.51,0,0,1,20.78,15.63Zm-5,14.18a2.49,2.49,0,0,0,.1-.39A10.51,10.51,0,0,1,19,23.47l.16-.15a10.39,10.39,0,0,1,7.5-2.69,10.86,10.86,0,0,1,10,10.94V63.52a21.28,21.28,0,0,0-15.37-6.36A21.66,21.66,0,0,0,8.91,61ZM21.37,89C12.9,89,6,83,6,75.56s6.9-13.4,15.37-13.4,15.37,6,15.37,13.4S29.85,89,21.37,89ZM50,67.75c-4.55,0-8.25-3.24-8.25-7.23s3.7-7.23,8.25-7.23,8.25,3.24,8.25,7.23S54.54,67.75,50,67.75Zm0-19.46A13.87,13.87,0,0,0,41.74,51V35.76a8.25,8.25,0,0,1,16.49,0c0,.06,0,.11,0,.17V51A13.87,13.87,0,0,0,50,48.28ZM78.63,89c-8.48,0-15.37-6-15.37-13.4s6.9-13.4,15.37-13.4S94,68.17,94,75.56,87.1,89,78.63,89Z"></path><path d="M78.45,78.32c-2.74,0-4.72-1.65-4.72-2.76a2.5,2.5,0,0,0-5,0c0,4.2,4.45,7.76,9.72,7.76a2.5,2.5,0,0,0,0-5Z"></path></svg>