<svg id="Layer_1" data-name="Layer 1" xmlns="http://www.w3.org/2000/svg" viewBox="0 0 400 400"><defs><style>.cls-1{fill:#919191;}.cls-2{fill:#fefefe;}</style></defs><title>Circle Mark</title><circle class="cls-1" cx="200.93" cy="200" r="199.07"/><path class="cls-2" d="M314.12,172.48c-57.41-1-96.77-53.35-82.12-109.33a7.23,7.23,0,0,1,2.81-4.08C268,39.53,310.08,44.58,334.94,73.46c22.21,25.81,23.9,62.9,6.56,92.34a6.23,6.23,0,0,1-3.71,2.67,57.81,57.81,0,0,1-11,3.27A77.62,77.62,0,0,1,314.12,172.48Z"/><path class="cls-2" d="M217.21,176.91C196.84,152,192.43,124.37,203.74,93.4l-12.33,7.18q-63.27,37.08-126.49,74.24a7.61,7.61,0,0,0-2.85,3.9c-1.42,4.1-4.82,6.34-8.79,5.39a7,7,0,0,1-5.12-8.48c.87-3.94,4.42-5.83,8.78-5.28a9,9,0,0,0,5.53-1.26Q124.29,129.63,186,90l36.11-23.15c.89-.57,1.81-1.08,3.21-1.91-8.57,33.84-2.3,63.77,22.24,88.25s54.23,30.67,88.24,22.05c-1.07,1.72-1.79,2.92-2.54,4.1Q282.63,258.25,232,337.18c-1.47,2.29-2.83,4.28-1.76,7.46s-1.66,6.89-5,7.74a7,7,0,0,1-8.58-4.42c-1.24-3.53.26-8,3.82-8.7,4-.81,5.38-3.52,7.08-6.43q38.71-66.1,77.47-132.17c.59-1,1.06-2.08,1.9-3.74-29.07,10.72-55.62,7.26-80.38-11.17-1.4,1.3-2.9,2.64-4.35,4q-51.76,49.66-103.53,99.31c-1.68,1.62-3,3-2.8,5.83.24,4.24-3.56,7.49-7.63,7.36a7.52,7.52,0,0,1-7.14-7.51c0-4.26,3.16-7.15,7.6-7.47a7.42,7.42,0,0,0,4.49-1.77q51.6-53.58,103-107.3A16,16,0,0,0,217.21,176.91Z"/></svg>